<svg width="783" height="513" xmlns="http://www.w3.org/2000/svg">

 <g>
  <title>background</title>
  <rect fill="#ffffff" id="canvas_background" height="515" width="785" y="-1" x="-1"/>
 </g>
 <g>
  <title>Layer 1</title>
  <g id="svg_73"/>
  <g id="svg_74"/>
  <g id="svg_75"/>
  <g id="svg_76"/>
  <g id="svg_77"/>
  <g id="svg_78"/>
  <g id="svg_79"/>
  <g id="svg_80"/>
  <g id="svg_81"/>
  <g id="svg_82"/>
  <g id="svg_83"/>
  <g id="svg_84"/>
  <g id="svg_85"/>
  <g id="svg_86"/>
  <g id="svg_87"/>
  <g stroke="null" transform="matrix(0.2877066745548547,0,0,0.26570506151438306,-35.90195853899604,-225.48466273352096) " id="svg_106"/>
  <g stroke="null" transform="matrix(0.2877066745548547,0,0,0.26570506151438306,-35.90195853899604,-225.48466273352096) " id="svg_107"/>
  <g stroke="null" transform="matrix(0.2877066745548547,0,0,0.26570506151438306,-35.90195853899604,-225.48466273352096) " id="svg_108"/>
  <g stroke="null" transform="matrix(0.2877066745548547,0,0,0.26570506151438306,-35.90195853899604,-225.48466273352096) " id="svg_109"/>
  <g stroke="null" transform="matrix(0.2877066745548547,0,0,0.26570506151438306,-35.90195853899604,-225.48466273352096) " id="svg_110"/>
  <g stroke="null" transform="matrix(0.2877066745548547,0,0,0.26570506151438306,-35.90195853899604,-225.48466273352096) " id="svg_111"/>
  <g stroke="null" transform="matrix(0.2877066745548547,0,0,0.26570506151438306,-35.90195853899604,-225.48466273352096) " id="svg_112"/>
  <g stroke="null" transform="matrix(0.2877066745548547,0,0,0.26570506151438306,-35.90195853899604,-225.48466273352096) " id="svg_113"/>
  <g stroke="null" transform="matrix(0.2877066745548547,0,0,0.26570506151438306,-35.90195853899604,-225.48466273352096) " id="svg_114"/>
  <g stroke="null" transform="matrix(0.2877066745548547,0,0,0.26570506151438306,-35.90195853899604,-225.48466273352096) " id="svg_115"/>
  <g stroke="null" transform="matrix(0.2877066745548547,0,0,0.26570506151438306,-35.90195853899604,-225.48466273352096) " id="svg_116"/>
  <g stroke="null" transform="matrix(0.2877066745548547,0,0,0.26570506151438306,-35.90195853899604,-225.48466273352096) " id="svg_117"/>
  <g stroke="null" transform="matrix(0.2877066745548547,0,0,0.26570506151438306,-35.90195853899604,-225.48466273352096) " id="svg_118"/>
  <g stroke="null" transform="matrix(0.2877066745548547,0,0,0.26570506151438306,-35.90195853899604,-225.48466273352096) " id="svg_119"/>
  <g stroke="null" transform="matrix(0.2877066745548547,0,0,0.26570506151438306,-35.90195853899604,-225.48466273352096) " id="svg_120"/>
  <g stroke="null" id="svg_123">
   <g stroke="null" id="svg_2">
    <path stroke="null" id="svg_3" fill="#996459" d="m353.84544,356.548657l-62.38084,-13.780255c-0.402312,-0.084511 -0.812105,-0.130698 -1.221068,-0.130698l-172.894515,0c-0.408962,0 -0.817924,0.046186 -1.221068,0.130698l-62.945241,13.941416c-32.092713,10.625821 -48.880106,47.998485 -48.880106,79.428825l0,43.077176c0,15.723032 11.929722,28.513718 26.599156,28.513718l345.78903,0c14.669435,0 26.599156,-12.790686 26.599156,-28.513718l0,-43.077176c0,-31.43034 -16.786561,-68.803004 -49.444506,-79.589986z"/>
   </g>
   <g stroke="null" id="svg_4">
    <path stroke="null" id="svg_5" fill="#4BB9EC" d="m236.027802,507.729538l-12.372764,-87.765963c-0.532814,-3.792199 -3.305776,-6.572227 -6.559186,-6.572227l-26.599156,0c-3.253409,0 -6.026371,2.779046 -6.559186,6.572227l-12.372764,87.765963l64.463055,0l0,0z"/>
   </g>
   <g stroke="null" id="svg_6">
    <path stroke="null" id="svg_7" fill="#009BCA" d="m190.496697,413.391348c-1.699021,0 -3.244266,0.785169 -4.431253,2.04989l44.342456,52.427467l-3.761287,-26.681002l-23.509498,-27.796355l-12.640418,0z"/>
   </g>
   <g stroke="null" id="svg_8">
    <path stroke="null" id="svg_9" fill="#3482AC" d="m230.350545,374.229207c-0.00665,-4.337591 -2.980768,-7.845793 -6.649789,-7.845793l-33.248945,0c-2.519439,0 -4.818603,1.681382 -5.948236,4.345453l-6.649789,15.723032c-0.467979,1.097664 -0.708203,2.311286 -0.701553,3.546526l0.045717,15.538286c0,12.998034 8.948954,23.576686 19.949367,23.576686l13.299578,0c11.000414,0 19.949367,-10.579635 19.949367,-23.600271l-0.045717,-31.28392z"/>
   </g>
   <g stroke="null" id="svg_10">
    <path stroke="null" id="svg_11" fill="#B4B6BC" d="m206.991498,343.797279l-59.802384,-39.46874c-2.902633,-1.927054 -6.552536,-0.990551 -8.54581,2.12654l-25.098798,39.307579c-1.714814,2.686673 -1.798768,6.36488 -0.201156,9.143926l40.54127,70.745781c2.234329,3.892433 5.786148,6.37962 9.74111,6.824778c0.428911,0.046186 0.856992,0.068788 1.279253,0.068788c3.506932,0 6.870895,-1.627334 9.383684,-4.591125c0.168738,-0.199486 0.330827,-0.414695 0.480447,-0.636783l27.553401,-40.443568c0.298409,-0.430418 0.558582,-0.90604 0.766388,-1.405246l6.604072,-15.561871c0.467979,-1.089803 0.708203,-2.303424 0.708203,-3.523924l0,-15.723032c0,-2.847834 -1.305852,-5.47358 -3.409679,-6.863103z"/>
   </g>
   <g stroke="null" id="svg_12">
    <path stroke="null" id="svg_13" fill="#B4B6BC" d="m200.510448,343.797279l59.802384,-39.46874c2.902633,-1.927054 6.552536,-0.990551 8.54581,2.12654l25.098798,39.307579c1.714814,2.686673 1.798768,6.36488 0.201156,9.143926l-40.54127,70.745781c-2.234329,3.892433 -5.786148,6.37962 -9.74111,6.824778c-0.428911,0.046186 -0.856992,0.068788 -1.279253,0.068788c-3.506932,0 -6.870895,-1.627334 -9.383684,-4.591125c-0.168738,-0.199486 -0.330827,-0.414695 -0.480447,-0.636783l-27.55257,-40.443568c-0.298409,-0.430418 -0.558582,-0.90604 -0.766388,-1.405246l-6.604072,-15.561871c-0.467979,-1.089803 -0.708203,-2.303424 -0.708203,-3.523924l0,-15.723032c0,-2.847834 1.305021,-5.47358 3.408848,-6.863103z"/>
   </g>
   <g stroke="null" id="svg_14">
    <path stroke="null" id="svg_15" fill="#FFDCAD" d="m296.848435,154.122486l-13.11754,-15.723032c0,0 -45.068114,-14.413107 -139.827608,0l-39.898734,15.723032c0,10.809584 0,17.2462 0,55.030611c0,78.152312 44.658321,141.507285 99.746836,141.507285s99.746836,-63.354974 99.746836,-141.507285c0,-12.68259 0,-36.850856 0,-55.030611c-1.721464,2.273943 -6.649789,0 -6.649789,0z"/>
   </g>
   <g stroke="null" id="svg_47">
    <g stroke="null" id="svg_48">
     <path stroke="null" id="svg_49" fill="#5C546A" d="m336.792056,208.991936c-3.675671,0 -6.649789,-3.516063 -6.649789,-7.861516l0,-93.731871c0,-4.345453 2.974118,-7.861516 6.649789,-7.861516s6.649789,3.516063 6.649789,7.861516l0,93.731871c0,4.345453 -2.974118,7.861516 -6.649789,7.861516z"/>
    </g>
   </g>
   <g stroke="null" id="svg_50">
    <path stroke="null" id="svg_51" fill="#5C546A" d="m358.40387,63.999051l-135.261696,-54.823263c-14.643667,-5.942323 -30.794342,-5.942323 -45.451308,0l-135.261696,54.823263c-7.072051,2.871419 -11.637131,10.425353 -11.637131,19.262679s4.56508,16.391261 11.637131,19.262679l66.140464,26.808752c0.694903,0.276136 1.422224,0.422556 2.156194,0.422556c0.025768,0 0.058186,0 0.084785,0l186.168325,-2.748582c0.701553,-0.007862 1.403105,-0.1533 2.071409,-0.422556l59.354355,-24.060169c7.072051,-2.871419 11.637131,-10.425353 11.637131,-19.262679s-4.565911,-16.391261 -11.637962,-19.262679z"/>
   </g>
   <g stroke="null" id="svg_52">
    <g stroke="null" id="svg_53">
     <path stroke="null" id="svg_54" fill="#5D647F" d="m180.989161,143.470132c7.05127,-0.605337 14.610418,-0.978759 22.807945,-0.978759c8.197527,0 15.756675,0.372439 22.807945,0.978759c27.078772,1.849422 59.252945,7.141204 76.93889,18.51387l0,-62.892127c0,-27.008238 -51.704603,-39.307579 -99.746836,-39.307579s-99.746836,12.299342 -99.746836,39.307579l0,62.892127c17.685945,-11.373648 49.859287,-16.664448 76.93889,-18.51387z"/>
    </g>
    <g stroke="null" id="svg_55">
     <path stroke="null" id="svg_56" fill="#5C546A" d="m203.796275,103.344955c-28.85676,0 -76.662924,4.48696 -99.746836,19.331467l0,19.976112c0,-6.848363 34.95711,-23.584548 99.746836,-23.584548s99.746836,16.736185 99.746836,23.584548l0,-19.976112c-23.08308,-14.843525 -70.889245,-19.331467 -99.746836,-19.331467z"/>
    </g>
    <g stroke="null" id="svg_57">
     <path stroke="null" id="svg_58" fill="#68748D" d="m203.796275,59.784296c-0.014962,0 -0.030755,0.000983 -0.045717,0.000983l0,82.707078c0.015793,0 0.029924,-0.000983 0.045717,-0.000983c8.197527,0 15.756675,0.372439 22.807945,0.978759c27.078772,1.849422 59.252945,7.141204 76.93889,18.51387l0,-62.892127c0,-27.008238 -51.704603,-39.307579 -99.746836,-39.307579z"/>
    </g>
    <g stroke="null" id="svg_59">
     <path stroke="null" id="svg_60" fill="#5D647F" d="m203.751389,103.345938l0,15.723032c0.015793,0 0.029924,-0.000983 0.045717,-0.000983c64.789726,0 99.746836,16.736185 99.746836,23.584548l0,-19.976112c-23.083911,-14.843525 -70.890076,-19.331467 -99.746836,-19.331467c-0.014962,0 -0.031586,0.000983 -0.045717,0.000983z"/>
    </g>
   </g>
   <g stroke="null" id="svg_61">
    <path stroke="null" id="svg_62" fill="#FFE671" d="m343.396959,256.322192l-13.299578,0c-3.672346,0 -6.649789,-3.519994 -6.649789,-7.861516l0,-31.446063c0,-8.684027 5.954055,-15.723032 13.299578,-15.723032l0,0c7.345523,0 13.299578,7.039005 13.299578,15.723032l0,31.446063c0,4.341522 -2.977443,7.861516 -6.649789,7.861516z"/>
   </g>
   <g stroke="null" id="svg_63">
    <path stroke="null" id="svg_64" fill="#FFCD00" d="m323.447592,217.014613l0,31.446063c0,4.341522 2.977443,7.861516 6.649789,7.861516l6.649789,0l0,-55.030611c-7.345523,0 -13.299578,7.039005 -13.299578,15.723032z"/>
   </g>
   <g stroke="null" id="svg_65">
    <path stroke="null" id="svg_66" fill="#B4B6BC" d="m70.802156,455.16646c0,-16.680171 -5.604941,-32.676391 -15.581287,-44.471612l-29.530051,-34.912009c-14.087578,16.511149 -21.387384,39.694759 -21.387384,60.355805l0,43.077176c0,15.723032 11.929722,28.513718 26.599156,28.513718l39.900397,0l0,-52.563078l-0.000831,0z"/>
   </g>
   <g stroke="null" id="svg_67">
    <path stroke="null" id="svg_68" fill="#B4B6BC" d="m381.844376,375.857523l-29.467709,34.838307c-9.977177,11.794239 -15.582118,27.791441 -15.582118,44.471612l0,52.563078l39.897072,0c14.669435,0 26.599156,-12.790686 26.599156,-28.513718l0,-43.077176c-0.000831,-20.611912 -7.267388,-43.733613 -21.446401,-60.282104z"/>
   </g>
   <g stroke="null" id="svg_69">
    <polygon stroke="null" id="svg_70" fill="#009BCA" points="181.53859288377294,436.98669349701595 178.85124171546136,456.0440158985475 222.56614489223807,507.72953571157996 236.02779127316694,507.72953571157996 234.95969843510625,500.14807825797834 "/>
   </g>
   <g stroke="null" id="svg_71">
    <polygon stroke="null" id="svg_72" fill="#009BCA" points="172.91465300856157,498.15909235581057 181.00910322806317,507.72953571157996 199.81552087695468,507.72953571157996 175.60116148776592,479.1018631486768 "/>
   </g>
  </g>
  <g stroke="null" id="svg_122">
   <g stroke="null" transform="matrix(1.659700187287406,0,0,1.4481465884371207,-416.7269780693324,-1284.6489798701928) " id="svg_94">
    <path stroke="null" id="svg_95" fill="#D39F89" d="m581.364994,1171.50367c27.733,0 51.2,-13.867 65.067,-35.2c-1.067,-5.333 -3.2,-10.667 -5.333,-16c-2.133,-1.067 -4.267,-1.067 -6.4,-2.133c-1.067,0 -2.133,-1.067 -3.2,-1.067c-3.2,-1.067 -7.467,-3.2 -9.6,-5.333c-4.267,-4.267 -5.333,-9.6 -6.4,-14.933c0,-4.267 0,-9.6 1.067,-14.933c-22.4,-2.133 -45.867,-4.267 -68.267,-5.333c-2.133,5.333 -1.067,11.733 -1.067,18.133l0,1.067c0,6.4 -2.133,13.867 -7.467,18.133s-11.733,4.267 -18.133,5.333c-1.067,0 -2.133,0 -2.133,0c1.067,4.267 2.133,9.6 3.2,13.867c0,3.2 0,7.467 1.067,10.667c12.799,15.998 34.132,27.732 57.599,27.732z"/>
    <path stroke="null" id="svg_96" fill="#D39F89" d="m624.031994,1045.63667c0,-2.133 0,-3.2 1.067,-5.333c1.067,-2.133 2.133,-3.2 4.267,-3.2c3.2,3.2 6.4,6.4 9.6,8.533l1.067,1.067c1.067,1.067 1.067,2.133 1.067,3.2c0,2.133 0,3.2 0,5.333c-1.067,2.133 -2.133,5.333 -4.267,6.4c-2.133,1.067 -5.333,2.133 -7.467,1.067c-2.133,0 -3.2,-2.133 -4.267,-3.2c-1.067,-2.133 -1.067,-5.333 -1.067,-8.533c0,-2.134 0,-3.201 0,-5.334z"/>
    <path stroke="null" id="svg_97" fill="#D39F89" d="m520.564994,1055.23667c0,3.2 1.067,5.333 2.133,7.467s4.267,4.267 6.4,4.267c3.2,0 5.333,-3.2 6.4,-6.4c1.067,-3.2 0,-6.4 0,-8.533c0,-4.267 -1.067,-7.467 -1.067,-11.733c-2.133,3.2 -5.333,6.4 -8.533,9.6l-1.067,1.067l0,1.067l-1.066,1.065c-2.133,0 -2.133,1.066 -3.2,2.133z"/>
   </g>
   <path stroke="null" id="svg_98" fill="#8C5233" d="m372.900159,294.463137c1.7709,-3.088897 5.311041,-3.088897 8.851181,-3.088897s7.081941,1.545172 8.851181,1.545172c8.851181,0 14.162222,-9.268138 17.704022,-16.991104c1.7709,-3.088897 1.7709,-7.722966 1.7709,-10.813311c-1.7709,-3.088897 -5.311041,-6.179241 -8.851181,-9.268138c-7.081941,-7.722966 -5.311041,-20.081449 1.7709,-27.804414c1.7709,-3.088897 5.311041,-4.634069 5.311041,-7.722966c1.7709,-4.634069 1.7709,-10.813311 3.54014,-16.991104c1.7709,-3.088897 3.54014,-4.634069 5.311041,-7.722966c1.7709,-4.634069 3.54014,-9.268138 3.54014,-13.902207c0,-18.536276 3.54014,-38.617725 14.162222,-55.608829s26.555203,-30.893311 47.799365,-35.52738c5.311041,-1.545172 8.851181,-1.545172 14.162222,-1.545172c1.7709,0 3.54014,0 7.081941,0l0,0c-8.851181,9.268138 -17.704022,21.625173 -12.392981,32.438484c0,1.545172 1.7709,1.545172 1.7709,3.088897c-10.622081,4.634069 -14.162222,16.991104 -14.162222,26.259242c0,3.088897 1.7709,6.179241 1.7709,9.268138c-1.7709,1.545172 -5.311041,1.545172 -7.081941,3.088897c-8.851181,6.179241 -3.54014,16.991104 -7.081941,26.259242c-1.7709,1.545172 -3.54014,4.634069 -3.54014,6.179241c0,1.545172 0,4.634069 0,6.179241c1.7709,15.44738 1.7709,30.893311 3.54014,46.340691c0,9.268138 1.7709,18.536276 3.54014,26.259242c3.54014,9.268138 8.851181,16.991104 17.704022,23.170345l0,1.545172c0,9.268138 -3.54014,20.081449 -12.392981,26.259242c-8.851181,6.179241 -19.473262,6.179241 -30.095343,7.722966c-1.7709,0 -3.54014,0 -3.54014,0c1.7709,6.179241 3.54014,13.902207 5.311041,20.081449c-12.392981,3.088897 -24.784303,3.088897 -37.177284,-1.545172c-1.7709,-1.545172 -5.311041,-1.545172 -5.311041,-4.634069c0,-1.545172 0,-3.088897 0,-3.088897c0,-4.634069 3.54014,-10.813311 5.311041,-15.44738c1.7709,-4.634069 1.7709,-10.813311 -1.7709,-15.44738c-5.311041,-1.545172 -14.162222,-1.545172 -21.244162,-3.088897c-5.311041,-1.545172 -10.622081,-4.634069 -14.162222,-9.268138c-1.7709,-1.545172 -1.7709,-4.634069 0,-6.179241z"/>
   <path stroke="null" id="svg_99" fill="#91573B" d="m604.815045,300.642378c10.622081,-7.722966 19.473262,-16.991104 23.015062,-27.804414c3.54014,-12.357035 3.54014,-24.715518 3.54014,-37.072553c0,-7.722966 0,-13.902207 -1.7709,-21.625173c0,-1.545172 0,-4.634069 -1.7709,-6.179241c-1.7709,-4.634069 -7.081941,-9.268138 -12.392981,-10.813311c-5.311041,-1.545172 -12.392981,-3.088897 -17.704022,-4.634069c-24.784303,-6.179241 -44.259225,-23.170345 -58.421447,-41.706622c-5.311041,-6.179241 -10.622081,-13.902207 -17.704022,-16.991104c-3.54014,-1.545172 -7.081941,-3.088897 -12.392981,-3.088897c3.54014,3.088897 0,7.722966 -3.54014,9.268138c-3.54014,1.545172 -8.851181,3.088897 -10.622081,6.179241c-3.54014,3.088897 -1.7709,9.268138 -5.311041,12.357035c-1.7709,1.545172 -3.54014,3.088897 -7.081941,3.088897c-1.7709,-3.088897 -1.7709,-6.179241 -1.7709,-9.268138c-1.7709,-12.357035 1.7709,-23.170345 12.392981,-27.804414c0,-1.545172 -1.7709,-1.545172 -1.7709,-3.088897c-5.311041,-10.813311 1.7709,-23.170345 12.392981,-32.438484l0,0c10.622081,-10.813311 23.015062,-20.081449 38.948184,-21.625173c10.622081,-1.545172 21.244162,3.088897 31.866244,6.179241c21.244162,9.268138 40.717425,21.625173 58.421447,32.438484c10.622081,7.722966 23.015062,15.44738 30.095343,24.715518c15.933122,23.170345 5.311041,54.063657 23.015062,75.690278c3.54014,4.634069 7.081941,7.722966 12.392981,7.722966c3.54014,0 8.851181,-1.545172 12.392981,1.545172c1.7709,1.545172 1.7709,3.088897 1.7709,3.088897c1.7709,10.813311 -14.162222,18.536276 -24.784303,23.170345c7.081941,7.722966 1.7709,20.081449 -8.851181,21.625173c8.851181,7.722966 15.933122,16.991104 17.704022,27.804414c1.7709,10.813311 -5.311041,23.170345 -17.704022,24.715518c-10.622081,3.088897 -24.784303,-3.088897 -33.637144,4.634069c-1.7709,1.545172 -1.7709,3.088897 -3.54014,4.634069c-1.7709,1.545172 -5.311041,3.088897 -7.081941,3.088897c-5.311041,-1.545172 -12.392981,-4.634069 -15.933122,-7.722966c-10.620421,-3.091793 -14.162222,-10.814759 -14.162222,-20.082897z"/>
   <path stroke="null" id="svg_100" fill="#FACABB" d="m464.958749,195.602514c0,-1.545172 1.7709,-4.634069 3.54014,-6.179241c3.54014,-7.722966 -1.7709,-20.081449 7.081941,-26.259242c1.7709,-1.545172 5.311041,-1.545172 7.081941,-3.088897c1.7709,-1.545172 5.311041,-1.545172 7.081941,-3.088897c3.54014,-3.088897 1.7709,-7.722966 5.311041,-12.357035c1.7709,-3.088897 7.081941,-4.634069 10.622081,-6.179241c3.54014,-1.545172 7.081941,-6.179241 3.54014,-9.268138c5.311041,0 8.851181,1.545172 12.392981,3.088897c7.081941,4.634069 12.392981,10.813311 17.704022,16.991104c14.162222,18.536276 33.637144,35.52738 58.421447,41.706622c5.311041,1.545172 12.392981,3.088897 17.704022,4.634069c5.311041,1.545172 10.622081,6.179241 12.392981,10.813311c0,1.545172 1.7709,4.634069 1.7709,6.179241c0,7.722966 0,13.902207 1.7709,21.625173c0,12.357035 1.7709,24.715518 -3.54014,37.072553c-5.311041,16.991104 -21.244162,29.349587 -38.948184,37.072553c-8.851181,4.634069 -19.473262,6.179241 -30.095343,7.722966c-15.933122,1.545172 -31.866244,0 -46.028465,-4.634069c-1.7709,-1.545172 -5.311041,-1.545172 -7.081941,-3.088897c-15.933122,-7.722966 -28.326103,-20.081449 -33.637144,-33.983656c-3.54512,-9.268138 -3.54512,-16.991104 -3.54512,-26.259242c-1.7709,-15.44738 -1.7709,-30.893311 -3.54014,-46.340691c0,-3.088897 0,-4.634069 0,-6.179241z"/>
   <path stroke="null" id="svg_101" fill="#F16D6E" d="m461.416949,458.200727l0,0c1.7709,0 0,0 0,0c1.7709,4.634069 1.7709,7.722966 3.54014,12.357035l0,0c0,1.545172 0,101.94952 0,103.494692l0,1.545172c0,1.545172 0,1.545172 0,3.088897l0,1.545172l0,1.545172l182.34628,0c0,-7.722966 0,-115.851727 0,-123.574693c0,-1.545172 0,-3.088897 0,-4.634069l0,0c0,-1.545172 0,-3.088897 0,-4.634069l0,0c1.7709,-20.081449 7.081941,-40.161449 8.851181,-60.242898c0,-9.268138 0,-18.536276 -1.7709,-27.804414c-23.015062,30.893311 -61.961587,50.97476 -107.991712,50.97476c-40.717425,0 -76.125468,-15.44738 -99.138871,-40.161449c0,1.545172 0,1.545172 0,3.088897c3.5418,26.257794 7.0836,55.607381 14.163881,83.411795z"/>
   <g stroke="null" transform="matrix(1.659700187287406,0,0,1.4481465884371207,-416.7269780693324,-1284.6489798701928) " id="svg_102">
    <path stroke="null" id="svg_103" fill="#E14A4A" d="m647.497994,1154.43667c-1.067,13.867 -4.267,27.733 -5.333,41.6c0,1.067 0,2.133 0,3.2l0,0c0,1.067 0,2.133 0,3.2c0,5.333 0,80 0,85.333l81.067,0c0,-1.067 0,-3.2 -1.067,-4.267c-4.267,-24.533 -9.6,-120.533 -27.733,-138.667c-13.867,-13.867 -34.133,-20.267 -53.333,-25.6c6.399,10.668 7.466,23.468 6.399,35.201z"/>
    <path stroke="null" id="svg_104" fill="#E14A4A" d="m532.297994,1287.76967l0,-1.067l0,-1.066c0,-1.067 0,-1.067 0,-2.133l0,-1.067c0,-1.067 0,-70.4 0,-71.467l0,0c-1.067,-3.2 -1.067,-5.333 -2.133,-8.533c-4.267,-19.2 -6.4,-38.4 -7.467,-58.667c0,-8.533 -1.067,-18.133 -3.2,-26.667c-12.8,2.134 -24.533,5.334 -35.2,8.534c-5.333,2.133 -10.667,3.2 -14.933,7.467c-5.333,4.267 -7.467,10.667 -10.667,16c-9.6,22.4 -17.067,115.2 -22.4,138.667l96,0l0,-0.001z"/>
   </g>
  </g>
  <rect stroke="null" canvas="#ffffff" canvas-opacity="1" id="svg_124" height="10.126592" width="783.545609" y="507.133316" x="6.05632" fill-opacity="null" stroke-opacity="null" stroke-width="null" fill="#FAECE1"/>
 </g>
</svg>